<?xml version="1.0" encoding="utf-8"?>
<!-- Generator: Adobe Illustrator 16.0.0, SVG Export Plug-In . SVG Version: 6.00 Build 0)  -->
<!DOCTYPE svg PUBLIC "-//W3C//DTD SVG 1.1//EN" "http://www.w3.org/Graphics/SVG/1.1/DTD/svg11.dtd">
<svg version="1.1" id="Capa_1" xmlns="http://www.w3.org/2000/svg" xmlns:xlink="http://www.w3.org/1999/xlink" x="0px" y="0px"
	 width="348.667px" height="352.667px" viewBox="0 0 348.667 352.667" enable-background="new 0 0 348.667 352.667"
	 xml:space="preserve">
<path fill="#00A8E7" d="M218.856,175.181L336.25,57.785c11.85-11.849,11.85-31.062,0.002-42.904
	c-11.85-11.849-31.059-11.847-42.906-0.002L175.698,132.53L58.042,14.873C46.201,3.028,26.99,3.027,15.14,14.876
	C3.287,26.719,3.287,45.93,15.142,57.781L132.327,174.97L14.929,292.37c-11.85,11.851-11.848,31.062,0.002,42.905
	c11.845,11.847,31.053,11.845,42.905,0.001l117.647-117.654l117.656,117.66c11.844,11.846,31.057,11.844,42.9-0.002
	c11.857-11.846,11.857-31.057,0.002-42.906L218.856,175.181z"/>
</svg>
