<?xml version="1.0" encoding="utf-8"?>
<!-- Generator: Adobe Illustrator 16.0.0, SVG Export Plug-In . SVG Version: 6.00 Build 0)  -->
<!DOCTYPE svg PUBLIC "-//W3C//DTD SVG 1.1//EN" "http://www.w3.org/Graphics/SVG/1.1/DTD/svg11.dtd">
<svg version="1.1" id="Capa_1" xmlns="http://www.w3.org/2000/svg" xmlns:xlink="http://www.w3.org/1999/xlink" x="0px" y="0px"
	 width="323.833px" height="474.582px" viewBox="0 0 323.833 474.582" enable-background="new 0 0 323.833 474.582"
	 xml:space="preserve">
<path fill="#00A8E7" d="M163.547,3.746C78.448,3.746,9.214,72.98,9.214,158.079c0,34.275,21.887,90.157,66.909,170.836
	c31.846,57.063,63.168,104.643,64.484,106.641l22.94,34.775l22.945-34.775c1.314-1.998,32.641-49.575,64.48-106.639
	c45.021-80.681,66.906-136.563,66.906-170.837C317.883,72.98,248.65,3.746,163.547,3.746z M161.916,240.125
	c-44.597,0-80.75-36.152-80.75-80.749s36.153-80.75,80.75-80.75c44.597,0,80.75,36.153,80.75,80.75S206.513,240.125,161.916,240.125
	z"/>
</svg>
